<?xml version="1.0" encoding="UTF-8"?>
<svg xmlns="http://www.w3.org/2000/svg" version="1.1" viewBox="0 0 307.2 233.2">
  <defs>
    <style>
      .cls-1 {
        fill: #dad6cc;
      }
    </style>
  </defs>
  <!-- Generator: Adobe Illustrator 28.6.0, SVG Export Plug-In . SVG Version: 1.2.0 Build 709)  -->
  <g>
    <g id="Layer_1">
      <g>
        <g>
          <path class="cls-1" d="M19.2,179.2c0-7.6-.3-10.9-.4-11.9.4,0,1.4,0,2.2,0,1.1,0,3.8-.2,6.8-.2,5.8,0,11.9.8,16.2,4.9,2.2,2.2,4.1,5.5,4.1,10.7s-2.2,9-4.6,11.5c-2.2,2.1-6.2,4.8-13.7,4.8s-3.5,0-5-.2c-2.2-.2-3.8-.4-5.8-.3,0-1.7.3-5.5.3-11.8v-7.6ZM23.2,185.2c0,4.5,0,7.7,0,8.9,0,1,0,1.3.2,1.4.7.4,3.1,1,6.6,1s6.8-.8,9.3-2.8c2.4-2,4.2-5.6,4.2-10.1s-.8-6.7-3-9.3c-2.9-3.4-7.8-4.7-13.2-4.7s-3.3,0-3.9.3c-.1,0-.2.1-.2.3,0,.8,0,4.7,0,8.9v6.3Z"/>
          <path class="cls-1" d="M70.1,179.2c0-6.8-.2-10.8-.5-12,.6,0,1.8,0,2.8,0h9.7c.9,0,2.7,0,3.5-.2,0,.7-.3,2.3-.3,3.7-.6-.3-1.5-.5-3.6-.7-1.4,0-3.9-.1-7.4-.1s-.1,0-.1.1v10.4c0,.1,0,.2.1.2.6,0,5.6,0,6.9,0,2.3,0,3.3-.2,3.8-.3-.2,1-.4,2.8-.4,3.7-.6-.3-1.3-.5-3-.6-1.5,0-6.4-.1-7.2-.1s-.1,0-.1.2v2.8c0,8.1,0,9.2.3,9.4.1,0,.5.2.9.2,1,0,2.4.2,4.3.2,4,0,5.9-.3,7.2-.8-.3.9-.7,2.5-.9,3.4-.1,0-.6,0-2.3,0-5.9,0-9.2-.2-11-.2s-2.4,0-2.9,0c.1-1.5.4-6.2.4-12v-7.3Z"/>
          <path class="cls-1" d="M104.6,193.1c1.3,1.6,4,3.4,7.3,3.4s6-2.4,6-5.3-.9-4.1-4.6-6.5l-2.2-1.4c-4.6-2.9-5.7-5.7-5.7-8.6,0-4.4,3.5-8.1,9.5-8.1s3.2.2,4.2.4c1.2.2,1.9.3,2.3.3-.1.4-.4,2.7-.4,4.3-.8-1-2.9-2.4-6.3-2.4s-5.3,1.8-5.3,4.6.5,3.7,4.4,6.2l2.1,1.3c5.2,3.3,6.2,5.8,6.2,9s-.9,5.1-3.9,7.2c-2,1.3-4.6,1.7-6.7,1.7s-5.7-.7-7.1-1.7c.1-.6.4-3.1.3-4.4Z"/>
          <path class="cls-1" d="M143.8,179.2c0-5.9-.1-10.9-.4-11.9.4,0,1.4,0,2,0,1.4,0,2.4,0,2.8-.1,0,1.5-.3,6.2-.3,12v7.3c0,5.2,0,10.8.4,12-.4,0-1.3,0-2.1,0s-2.3,0-2.7.1c.2-1.5.3-6.7.3-12.1v-7.3Z"/>
          <path class="cls-1" d="M199.2,194.3v3.1c-2.8,1.2-7.1,1.8-10.8,1.8-5.8,0-11-1.8-14.3-5.4-2.4-2.5-4.2-6.3-4.2-11.1,0-6.9,3.5-10.8,6.7-13,4.2-2.8,9.4-3.1,12.4-3.1,5.3,0,9.5,1.5,10.6,1.7-.2.7-.5,2.8-.5,4.5-1-1.2-4.8-3.5-11.4-3.5s-6.7.9-9.2,3c-2.3,2-4.1,5.3-4.1,9.5,0,8.9,5.3,14.6,15,14.6s4.3-.2,5.6-1c0,0,.1-.3.1-1.2v-5c0-2.3-.2-5.2-.5-6.1.6,0,1.5,0,2.3,0,1.3,0,2.1,0,2.5-.1,0,1-.2,4.2-.2,7.2v4.1Z"/>
          <path class="cls-1" d="M225.1,198.5c-.4,0-2,0-2.3.1.3-3.5.4-22.2.4-29.6s0-2.4.4-2.4.5.3,1.4,1.2c4.2,4.2,18.5,20.3,22.4,23.5,0-6.3-.2-19.4-.5-24,.3,0,1.2,0,1.8,0,.9,0,2.1,0,2.4-.1-.2,2.5-.5,13.2-.5,21.1,0,2.7,0,6.8,0,8.5s0,2.4-.3,2.4-.9-.5-3.6-3.1c-3.7-3.5-16.1-17.5-20.2-21.8,0,8.9.1,21.1.5,24.3-.6,0-1.3,0-2,0Z"/>
          <path class="cls-1" d="M272.4,193.1c1.3,1.6,4,3.4,7.3,3.4s6-2.4,6-5.3-.9-4.1-4.6-6.5l-2.2-1.4c-4.6-2.9-5.7-5.7-5.7-8.6,0-4.4,3.5-8.1,9.5-8.1s3.2.2,4.2.4c1.2.2,1.9.3,2.3.3-.1.4-.4,2.7-.4,4.3-.8-1-2.9-2.4-6.3-2.4s-5.3,1.8-5.3,4.6.5,3.7,4.4,6.2l2.1,1.3c5.2,3.3,6.2,5.8,6.2,9s-.9,5.1-3.9,7.2c-2,1.3-4.6,1.7-6.7,1.7s-5.7-.7-7.1-1.7c.1-.6.4-3.1.3-4.4Z"/>
        </g>
        <g>
          <path class="cls-1" d="M161,84.1c1.4-.2,2.9-.3,4.3-.3s.7,0,1.1,0c-11.3-27.8-23.3-56.3-24.2-58.8-1.3-3.6-1.7-4.7-2.4-4.7s-1.1,1.8-2.1,4.7l-27.8,74.1c-3.8,10.7-8.4,22.9-11.8,30.4.7-.1,3-.3,3.7-.3,1.4,0,1.7,0,2.6.1,1.7-6.7,10.5-30.5,15.5-45,.1-.3.1-.4.6-.4h40.3c.2,0,.3,0,.4.1ZM159.2,80.1h-37.6c-.3,0-.4-.1-.3-.4l18.3-49.4,20,49.4c.1.3,0,.4-.4.4Z"/>
          <path class="cls-1" d="M156.9,136.5c2.8,3.6,11.1,7.3,21.6,7.3,15.9,0,23.3-8.5,23.3-19.1s-3.7-14.3-17.2-21.6l-6.8-3.7c-13.8-7.5-17.6-14.3-17.6-21.9s9.7-19.6,27.4-19.6,9.8.7,12.8,1.2c2,.3,4.1.7,5.1.8-.4,1-1.1,4.9-1.1,5.9-2.4-2.6-8-5.2-18.2-5.2s-21,6.1-21,15.7,2.3,12.6,17.8,21l6.1,3.3c16.2,8.7,18,16,18,23.5s-1.1,12.1-10.5,17.9c-5.3,3.2-11.9,4.9-19.7,4.9s-16.9-2.2-20.6-4.4c.3-1.1.9-5.1.7-5.9Z"/>
          <path class="cls-1" d="M183.2,110.2c2.9,3.4,3.1,7.2,9.9,9.4,6.8,2.2,12.5,1.5,12.5,1.5,0,0-1.2-2.4-8.2-7.1-7-4.7-14.3-3.8-14.3-3.8Z"/>
          <path class="cls-1" d="M186.8,85.7c3.6,3,8.4,3.1,9.5,10.2,1.2,7.2-1.1,13.3-1.1,13.3,0,0-2.8-1.2-7-8.5-4.2-7.3-1.4-15-1.4-15Z"/>
          <path class="cls-1" d="M156.5,97.2c3.8,2.9,4.8,7.4,12.3,7.5,7.5,0,13.3-2.9,13.3-2.9,0,0-1.8-2.4-10-5.4-8.3-2.9-15.6.8-15.6.8Z"/>
        </g>
      </g>
    </g>
  </g>
</svg>